<svg width="48" height="49" viewBox="0 0 48 49" fill="none" xmlns="http://www.w3.org/2000/svg">
<path d="M24 48.5C37.2332 48.5 48 37.7332 48 24.5C48 11.2668 37.2332 0.5 24 0.5C10.7668 0.5 0 11.2668 0 24.5C0 37.7332 10.7668 48.5 24 48.5ZM24 44.8077C12.7625 44.8077 3.69231 35.7375 3.69231 24.5C3.69231 13.2625 12.7625 4.19231 24 4.19231C35.2375 4.19231 44.3077 13.2625 44.3077 24.5C44.3077 35.7375 35.2375 44.8077 24 44.8077ZM22.6708 36.3265L25.3292 33.7308L17.9446 26.3462L36.9231 26.3462V22.6538L17.9446 22.6538L25.3292 15.2692L22.6708 12.6735L12.1735 23.1726L10.8443 24.5018L12.1735 25.8311L22.6726 36.3283L22.6708 36.3265Z" fill="#EEEEF0" fill-opacity="0.5"/>
</svg>
