<svg width="48" height="49" viewBox="0 0 48 49" fill="none" xmlns="http://www.w3.org/2000/svg">
<path d="M24 0.5C10.7668 0.5 0 11.2668 0 24.5C0 37.7332 10.7668 48.5 24 48.5C37.2332 48.5 48 37.7332 48 24.5C48 11.2668 37.2332 0.5 24 0.5ZM24 4.19231C35.2375 4.19231 44.3077 13.2625 44.3077 24.5C44.3077 35.7375 35.2375 44.8077 24 44.8077C12.7625 44.8077 3.69231 35.7375 3.69231 24.5C3.69231 13.2625 12.7625 4.19231 24 4.19231ZM25.3292 12.6735L22.6708 15.2692L30.0554 22.6538H11.0769V26.3462H30.0554L22.6708 33.7308L25.3292 36.3265L35.8265 25.8274L37.1557 24.4982L35.8265 23.1689L25.3274 12.6717L25.3292 12.6735Z" fill="#EEEEF0"/>
</svg>
